<svg xmlns="http://www.w3.org/2000/svg" version="1.1" xmlns:xlink="http://www.w3.org/1999/xlink" viewBox="0 0 200 200"><rect width="200" height="200" fill="url('#gradient')"></rect><defs><linearGradient id="gradient" gradientTransform="rotate(0 0.5 0.5)"><stop offset="0%" stop-color="#ffe500"></stop><stop offset="100%" stop-color="#ffe500"></stop></linearGradient></defs><g><g fill="#000000" transform="matrix(6.3367425870219165,0,0,6.3367425870219165,25.766194658831154,145.026931182581)" stroke="#000000" stroke-width="0"><path d="M6.74-4.46L6.74-14.22L10.16-14.22L10.16-4.46Q10.16-3.11 9.53-2.04Q8.90-0.98 7.77-0.39Q6.64 0.20 5.25 0.20L5.25 0.20Q2.93 0.20 1.64-0.98Q0.35-2.15 0.35-4.30L0.35-4.30L3.79-4.30Q3.79-3.32 4.13-2.88Q4.46-2.44 5.25-2.44L5.25-2.44Q5.97-2.44 6.35-2.97Q6.74-3.51 6.74-4.46L6.74-4.46ZM19.65-3.78L19.65-3.78Q19.65-4.53 19.12-4.95Q18.58-5.37 17.25-5.82Q15.91-6.27 15.06-6.69L15.06-6.69Q12.29-8.05 12.29-10.42L12.29-10.42Q12.29-11.60 12.98-12.50Q13.67-13.41 14.93-13.91Q16.19-14.41 17.76-14.41L17.76-14.41Q19.30-14.41 20.51-13.87Q21.73-13.32 22.40-12.31Q23.08-11.30 23.08-10L23.08-10L19.66-10Q19.66-10.87 19.13-11.35Q18.59-11.83 17.69-11.83L17.69-11.83Q16.77-11.83 16.24-11.42Q15.70-11.02 15.70-10.39L15.70-10.39Q15.70-9.84 16.29-9.40Q16.88-8.96 18.35-8.48Q19.82-8.01 20.77-7.46L20.77-7.46Q23.08-6.13 23.08-3.80L23.08-3.80Q23.08-1.93 21.67-0.87Q20.26 0.20 17.81 0.20L17.81 0.20Q16.08 0.20 14.68-0.42Q13.28-1.04 12.57-2.12Q11.87-3.20 11.87-4.61L11.87-4.61L15.30-4.61Q15.30-3.47 15.89-2.92Q16.48-2.38 17.81-2.38L17.81-2.38Q18.66-2.38 19.16-2.75Q19.65-3.12 19.65-3.78Z"></path></g></g></svg>